<svg width="81" height="36" viewBox="0 0 81 36" fill="none" xmlns="http://www.w3.org/2000/svg">
<g id="logo">
<path d="M62.3384 0L62.1605 0.726552C61.603 3.00295 60.6501 2.95666 60.1329 0.628176L59.9953 0.00829254H58.1686L58.2439 0.472354C58.8396 4.14509 63.6873 4.07684 64.06 0.39047L64.0932 0.0628951L62.3384 0Z" fill="white"/>
<path d="M12.3527 1.20939V0.117484H0V1.20939H5.09278V20.7545H7.25992V1.20939H12.3527Z" fill="white"/>
<path fill-rule="evenodd" clip-rule="evenodd" d="M16.7412 16.2231L16.6328 5.08566L14.7366 5.02255V14.8233L14.9514 15.6697C15.5029 17.8423 16.3483 18.8455 19.2092 20.7222L21.1728 22.0102L20.4474 22.083C14.7812 22.6518 12.4687 30.3403 16.772 34.3035C20.2363 37.4941 25.2127 36.0185 27.0129 31.2668L27.2518 30.6363L27.3112 5.03106H25.2472V10.1429C25.2472 17.1565 24.9799 18.098 22.6466 19.3008L22.0506 19.608H19.7752L19.2875 19.3499C18.1954 18.7716 17.4272 17.9352 16.9929 16.8512L16.7412 16.2231ZM25.2238 22.4352L25.193 23.5699L20.8802 20.7545L21.3029 20.7529C22.3789 20.7488 23.9159 20.1527 24.7596 19.4121L25.193 19.0317L25.2238 20.1661C25.2407 20.79 25.2407 21.811 25.2238 22.4352ZM18.3109 33.7581C15.2466 30.6333 16.3856 24.3518 20.1959 23.3631C22.269 22.8252 24.6195 24.7746 25.1889 27.5041C26.317 32.9116 21.6457 37.159 18.3109 33.7581Z" fill="white"/>
<path d="M33.8465 16.2231C33.735 15.8029 33.7013 14.4502 33.7003 10.3541L33.699 5.03106H31.7351L31.8184 15.2404L31.9974 15.8409C33.9705 22.4619 42.3898 22.311 44.182 15.6226L44.3722 14.9128V5.08566L42.2592 5.02321V10.2999C42.2592 16.0138 42.2417 16.2194 41.6535 17.3889C41.2861 18.1196 40.4717 18.9108 39.6877 19.2988L39.0627 19.608H36.8956L36.274 19.3145C35.1446 18.7811 34.2095 17.5903 33.8465 16.2231Z" fill="white"/>
<path d="M51.0436 7.31653L50.982 5.08566L48.7606 5.02342V20.7545H51.0361V8.77521L51.6113 8.22708C52.5093 7.37124 53.7951 6.88731 55.171 6.88731H55.8038V5.03106L55.56 5.03194C54.209 5.03641 52.6511 5.69669 51.6784 6.67689L51.0436 7.31653Z" fill="white"/>
<path d="M62.3053 20.7545V5.03106H60.0298V20.7545H62.3053Z" fill="white"/>
<path d="M80.037 9.89386C79.3912 7.64847 77.7551 5.94073 75.6539 5.31856C73.7038 4.74117 71.9202 5.123 70.0079 6.52731L69.7462 6.71937L69.8777 5.14025H67.6148V20.7545H69.7819V9.96408L69.9823 9.31516C71.2235 5.29651 76.4802 5.0458 78.0347 8.93113L78.2874 9.56247L78.353 20.7545H80.3077L80.2244 10.5452L80.037 9.89386Z" fill="white"/>
</g>
</svg>
